<svg id="Layer_1" data-name="Layer 1" xmlns="http://www.w3.org/2000/svg" viewBox="0 0 271.02 58.09"><defs><style>.cls-1{fill:#ecb939;}.cls-2{fill:#372e29;}.cls-3{font-size:38px;stroke:#000;stroke-miterlimit:10;stroke-width:0.5px;font-family:MyriadPro-Regular, Myriad Pro;}</style></defs><title>Hufflepuff</title><circle class="cls-1" cx="28.75" cy="29.33" r="28.26"/><path class="cls-2" d="M30.7,63.59a28.58,28.58,0,0,1,3.17,4.08,3.93,3.93,0,0,1,1.18,1.09,2.37,2.37,0,0,1,.37.46c.29.48.58.94.85,1.42V29.47a19.58,19.58,0,0,0-2.39,3c-.5.61-1.07,1.18-1.55,1.8-.18.23-.86,1.31-.84,1A2.39,2.39,0,0,1,30.69,37V63.57Z" transform="translate(-26.8 -20.37)"/><path class="cls-2" d="M44.06,75.25c.54.28,1.32,1,1.93,1a2.56,2.56,0,0,1,1,.23V23.31c-1.08.45-2.22.6-3.3,1.06-.8.35-1.54.81-2.31,1.2V74.06A17.34,17.34,0,0,1,44.06,75.25Z" transform="translate(-26.8 -20.37)"/><path class="cls-2" d="M54.33,78c1.11.06,2.23,0,3.35-.06V22c-1.88,0-3.75-.07-5.63,0V77.87C52.8,77.85,53.53,77.91,54.33,78Z" transform="translate(-26.8 -20.37)"/><path class="cls-2" d="M65.08,76c-.56,0,.49-.18.28-.1.45-.18.88-.41,1.33-.59a14.69,14.69,0,0,0,2.05-.71L69,74.5V24.66c-1.85-.77-3.47-2.24-5.56-2.28h-.05V76.73A2.6,2.6,0,0,1,65.08,76Z" transform="translate(-26.8 -20.37)"/><path class="cls-2" d="M77.52,67.89c.89-1.3,1.36-2.75,2.36-4a1.77,1.77,0,0,1,.41-.37V36.32c-1-1.55-1.94-3.15-3-4.68a10,10,0,0,0-2.62-3.13V70.6A17.66,17.66,0,0,0,77.52,67.89Z" transform="translate(-26.8 -20.37)"/><path class="cls-2" d="M34.68,33.71c0,.18,0,0,0-.09s.14-.19.21-.29l.16-.24c-.14.2.13-.14.14-.15a1.5,1.5,0,0,0-2.12-2.12,4.83,4.83,0,0,0-1.33,2.09,1.54,1.54,0,0,0,1,1.85,1.52,1.52,0,0,0,1.85-1Z" transform="translate(-26.8 -20.37)"/><path class="cls-2" d="M46.27,24.82a1.5,1.5,0,0,0,0-3,1.5,1.5,0,0,0,0,3Z" transform="translate(-26.8 -20.37)"/><path class="cls-2" d="M54.74,23.37h.57c.09,0,.56.08.23,0a7.56,7.56,0,0,0,1.13.22,1.5,1.5,0,0,0,1.5-1.5,1.54,1.54,0,0,0-1.5-1.5c.23,0-.21-.08-.21-.08a3.39,3.39,0,0,0-.64-.12c-.36,0-.72,0-1.07,0a1.5,1.5,0,0,0,0,3Z" transform="translate(-26.8 -20.37)"/><path d="M55.55,78.46A28.75,28.75,0,1,1,84.31,49.7,28.79,28.79,0,0,1,55.55,78.46Zm0-56.52A27.77,27.77,0,1,0,83.32,49.7,27.8,27.8,0,0,0,55.55,21.93Z" transform="translate(-26.8 -20.37)"/><text class="cls-3" transform="translate(73.42 40.07)">Hufflepuff</text></svg>