<svg id="Layer_1" data-name="Layer 1" xmlns="http://www.w3.org/2000/svg" viewBox="0 0 286.35 65.84"><defs><style>.cls-1{fill:#2a623d;}.cls-2{fill:#aaa;}.cls-3{font-size:38px;stroke:#000;stroke-miterlimit:10;stroke-width:0.25px;font-family:MyriadPro-Regular, Myriad Pro;}.cls-4{letter-spacing:0em;}</style></defs><title>Slytherin</title><circle class="cls-1" cx="32.92" cy="32.92" r="32.36"/><path class="cls-2" d="M83.93,26.5c-.58.7-1.22,1.35-1.78,2.06-.2.26-1,1.5-1,1.09a2.74,2.74,0,0,1-.93,2V62.08C81.51,63.67,83,65,83.91,66.75A4.5,4.5,0,0,1,85.26,68a2.71,2.71,0,0,1,.43.53c.33.55.67,1.07,1,1.62V23C85.55,23.91,84.82,25.41,83.93,26.5Z" transform="translate(-75.81 -13.26)"/><path class="cls-2" d="M92.49,18.55V74.07a19.86,19.86,0,0,1,3.08,1.37c.62.33,1.51,1.09,2.21,1.12a2.93,2.93,0,0,1,1.14.26V16c-1.23.52-2.55.68-3.77,1.22C94.22,17.58,93.38,18.11,92.49,18.55Z" transform="translate(-75.81 -13.26)"/><path class="cls-2" d="M104.72,14.52v63.9c.86,0,1.7.05,2.61.1,1.27.07,2.56,0,3.83-.07v-64C109,14.46,106.86,14.4,104.72,14.52Z" transform="translate(-75.81 -13.26)"/><path class="cls-2" d="M117.68,14.9V77.12a3,3,0,0,1,2-.83c-.64,0,.56-.21.32-.12.52-.2,1-.48,1.53-.67a16.82,16.82,0,0,0,2.35-.81l.27-.12V17.51c-2.12-.88-4-2.56-6.37-2.6Z" transform="translate(-75.81 -13.26)"/><path class="cls-2" d="M133.65,25.5c-.85-1.26-1.68-2.77-3-3.58V70.1a20.21,20.21,0,0,0,3.23-3.1c1-1.48,1.56-3.15,2.7-4.58A2,2,0,0,1,137,62V30.85C135.89,29.08,134.83,27.25,133.65,25.5Z" transform="translate(-75.81 -13.26)"/><path d="M108.73,79.1a32.92,32.92,0,1,1,32.92-32.92A33,33,0,0,1,108.73,79.1Zm0-64.71a31.79,31.79,0,1,0,31.79,31.79A31.83,31.83,0,0,0,108.73,14.39Z" transform="translate(-75.81 -13.26)"/><text class="cls-3" transform="translate(86.8 47.09)">Slithe<tspan class="cls-4" x="89.3" y="0">r</tspan><tspan x="101.88" y="0">in</tspan></text></svg>