<svg id="Layer_1" data-name="Layer 1" xmlns="http://www.w3.org/2000/svg" viewBox="0 0 270.72 59.29"><defs><style>.cls-1{fill:#ae0001;}.cls-2{fill:#d3a625;}.cls-3{font-size:38px;stroke:#000;stroke-miterlimit:10;stroke-width:0.5px;font-family:MyriadPro-Regular, Myriad Pro;}.cls-4{letter-spacing:0.02em;}.cls-5{letter-spacing:0em;}</style></defs><title>Gryffindor</title><circle class="cls-1" cx="28.6" cy="28.6" r="28.11"/><path class="cls-2" d="M58.73,31.91c-.5.61-1.06,1.17-1.55,1.79-.18.23-.85,1.3-.83.95a2.38,2.38,0,0,1-.81,1.71V62.8h0a28.42,28.42,0,0,1,3.16,4.06A3.91,3.91,0,0,1,59.89,68a2.36,2.36,0,0,1,.37.46c.29.48.58.93.85,1.41V28.88A19.48,19.48,0,0,0,58.73,31.91Z" transform="translate(-51.68 -20.41)"/><path class="cls-2" d="M66.17,25V73.23a17.25,17.25,0,0,1,2.67,1.19c.54.28,1.31.95,1.92,1a2.54,2.54,0,0,1,1,.23V22.75c-1.07.45-2.21.59-3.28,1.06C67.67,24.16,66.94,24.62,66.17,25Z" transform="translate(-51.68 -20.41)"/><path class="cls-2" d="M76.79,21.5V77c.75,0,1.47,0,2.27.09,1.11.06,2.22,0,3.33-.06V21.47C80.52,21.45,78.66,21.4,76.79,21.5Z" transform="translate(-51.68 -20.41)"/><path class="cls-2" d="M88.05,21.83V75.88a2.59,2.59,0,0,1,1.7-.72c-.56,0,.49-.18.28-.1.45-.18.87-.41,1.33-.59a14.61,14.61,0,0,0,2-.71l.23-.11V24.1c-1.84-.76-3.45-2.23-5.53-2.26Z" transform="translate(-51.68 -20.41)"/><path class="cls-2" d="M101.92,31a9.91,9.91,0,0,0-2.61-3.11V69.78a17.56,17.56,0,0,0,2.81-2.69c.89-1.29,1.36-2.74,2.35-4a1.76,1.76,0,0,1,.41-.37V35.69C103.88,34.15,103,32.56,101.92,31Z" transform="translate(-51.68 -20.41)"/><path d="M80.28,77.6A28.6,28.6,0,1,1,108.87,49,28.63,28.63,0,0,1,80.28,77.6Zm0-56.22A27.62,27.62,0,1,0,107.9,49,27.65,27.65,0,0,0,80.28,21.38Z" transform="translate(-51.68 -20.41)"/><text class="cls-3" transform="translate(78.33 40.99)">G<tspan class="cls-4" x="24.55" y="0">r</tspan><tspan class="cls-5" x="37.92" y="0">yffindor</tspan></text></svg>