<svg id="Layer_1" data-name="Layer 1" xmlns="http://www.w3.org/2000/svg" viewBox="0 0 269.31 57.82"><defs><style>.cls-1{fill:#222f5b;}.cls-2{fill:#a58226;}.cls-3{font-size:38px;stroke:#000;stroke-miterlimit:10;stroke-width:0.75px;font-family:MyriadPro-Regular, Myriad Pro;}.cls-4{letter-spacing:0.01em;}.cls-5{letter-spacing:-0.01em;}.cls-6{letter-spacing:-0.01em;}</style></defs><title>Ravenclaw</title><circle class="cls-1" cx="28.91" cy="28.91" r="28.41"/><path class="cls-2" d="M56.11,32.77c-.51.62-1.07,1.18-1.56,1.81-.18.23-.86,1.32-.84,1a2.41,2.41,0,0,1-.81,1.73V64a28.73,28.73,0,0,1,3.19,4.1,4,4,0,0,1,1.19,1.09,2.38,2.38,0,0,1,.37.47c.29.48.59.94.86,1.43V29.71A19.69,19.69,0,0,0,56.11,32.77Z" transform="translate(-48.98 -21.14)"/><path class="cls-2" d="M63.62,25.79V74.54a17.44,17.44,0,0,1,2.7,1.2c.54.29,1.33,1,1.94,1a2.57,2.57,0,0,1,1,.23V23.52c-1.08.46-2.24.6-3.31,1.07C65.14,24.94,64.41,25.4,63.62,25.79Z" transform="translate(-48.98 -21.14)"/><path class="cls-2" d="M74.36,22.25V78.37c.76,0,1.49,0,2.29.09,1.12.06,2.25,0,3.37-.06V22.22C78.13,22.2,76.25,22.15,74.36,22.25Z" transform="translate(-48.98 -21.14)"/><path class="cls-2" d="M85.74,22.58V77.22a2.62,2.62,0,0,1,1.72-.73c-.57,0,.49-.18.28-.1.45-.18.88-.42,1.34-.59a14.77,14.77,0,0,0,2.06-.71l.23-.11V24.88c-1.86-.77-3.49-2.25-5.59-2.29Z" transform="translate(-48.98 -21.14)"/><path class="cls-2" d="M99.76,31.89a10,10,0,0,0-2.64-3.15V71.06A17.75,17.75,0,0,0,100,68.34c.9-1.3,1.37-2.77,2.37-4a1.78,1.78,0,0,1,.41-.37V36.59C101.74,35,100.81,33.43,99.76,31.89Z" transform="translate(-48.98 -21.14)"/><path d="M77.89,79a28.91,28.91,0,1,1,28.91-28.91A28.94,28.94,0,0,1,77.89,79Zm0-56.83A27.92,27.92,0,1,0,105.8,50.05,28,28,0,0,0,77.89,22.13Z" transform="translate(-48.98 -21.14)"/><text class="cls-3" transform="translate(78.21 38.25)"><tspan class="cls-4">R</tspan><tspan class="cls-5" x="20.9" y="0">a</tspan><tspan class="cls-6" x="38.91" y="0">v</tspan><tspan x="56.81" y="0">encl</tspan><tspan class="cls-5" x="122.93" y="0">a</tspan><tspan x="140.94" y="0">w</tspan></text></svg>